<svg width="355" height="300" viewBox="0 0 355 300" fill="none" xmlns="http://www.w3.org/2000/svg">
<rect width="355" height="300" fill="#E0E0E0"/>
<path d="M111 108.625C111 104.216 112.752 99.9871 115.869 96.8693C118.987 93.7516 123.216 92 127.625 92H227.375C231.784 92 236.013 93.7516 239.131 96.8693C242.248 99.9871 244 104.216 244 108.625V191.75C244 196.159 242.248 200.388 239.131 203.506C236.013 206.623 231.784 208.375 227.375 208.375H127.625C123.216 208.375 118.987 206.623 115.869 203.506C112.752 200.388 111 196.159 111 191.75V108.625ZM119.312 183.438V191.75C119.312 193.955 120.188 196.069 121.747 197.628C123.306 199.187 125.42 200.062 127.625 200.062H227.375C229.58 200.062 231.694 199.187 233.253 197.628C234.812 196.069 235.688 193.955 235.688 191.75V162.656L204.291 146.472C203.512 146.081 202.629 145.946 201.768 146.085C200.908 146.223 200.112 146.629 199.495 147.245L168.656 178.084L146.544 163.354C145.746 162.823 144.788 162.584 143.834 162.678C142.879 162.772 141.987 163.193 141.307 163.87L119.312 183.438ZM160.875 129.406C160.875 126.099 159.561 122.928 157.223 120.59C154.885 118.251 151.713 116.938 148.406 116.938C145.099 116.938 141.928 118.251 139.59 120.59C137.251 122.928 135.938 126.099 135.938 129.406C135.938 132.713 137.251 135.885 139.59 138.223C141.928 140.561 145.099 141.875 148.406 141.875C151.713 141.875 154.885 140.561 157.223 138.223C159.561 135.885 160.875 132.713 160.875 129.406Z" fill="white"/>
</svg>
