<svg width="25" height="25" viewBox="0 0 25 25" fill="none" xmlns="http://www.w3.org/2000/svg">
<path d="M10.9166 21.2499C13.2093 21.2494 15.4359 20.4819 17.2419 19.0696L22.9201 24.7478L24.7465 22.9213L19.0684 17.2432C20.4814 15.437 21.2494 13.2099 21.25 10.9166C21.25 5.21904 16.6142 0.583252 10.9166 0.583252C5.21911 0.583252 0.583313 5.21904 0.583313 10.9166C0.583313 16.6141 5.21911 21.2499 10.9166 21.2499ZM10.9166 3.16659C15.1908 3.16659 18.6666 6.64246 18.6666 10.9166C18.6666 15.1907 15.1908 18.6666 10.9166 18.6666C6.64252 18.6666 3.16665 15.1907 3.16665 10.9166C3.16665 6.64246 6.64252 3.16659 10.9166 3.16659Z" fill="#F2994A"/>
</svg>
