<svg width="29" height="26" viewBox="0 0 29 26" fill="none" xmlns="http://www.w3.org/2000/svg">
<path fill-rule="evenodd" clip-rule="evenodd" d="M7.83333 1.66675C8.27536 1.66675 8.69928 1.84234 9.01184 2.1549C9.3244 2.46746 9.5 2.89139 9.5 3.33341V6.66675C9.5 7.10878 9.3244 7.5327 9.01184 7.84526C8.69928 8.15782 8.27536 8.33341 7.83333 8.33341C7.3913 8.33341 6.96738 8.15782 6.65482 7.84526C6.34226 7.5327 6.16666 7.10878 6.16666 6.66675V3.33341C6.16666 2.89139 6.34226 2.46746 6.65482 2.1549C6.96738 1.84234 7.3913 1.66675 7.83333 1.66675V1.66675Z" stroke="#F2994A" stroke-width="2" stroke-linecap="round" stroke-linejoin="round"/>
<path d="M27.8333 5H9.49995" stroke="#F2994A" stroke-width="2" stroke-linecap="round" stroke-linejoin="round"/>
<path d="M6.16662 5H1.16662" stroke="#F2994A" stroke-width="2" stroke-linecap="round" stroke-linejoin="round"/>
<path fill-rule="evenodd" clip-rule="evenodd" d="M7.83333 18.3335C8.27536 18.3335 8.69928 18.5091 9.01184 18.8217C9.3244 19.1342 9.5 19.5581 9.5 20.0002V23.3335C9.5 23.7755 9.3244 24.1994 9.01184 24.512C8.69928 24.8246 8.27536 25.0002 7.83333 25.0002C7.3913 25.0002 6.96738 24.8246 6.65482 24.512C6.34226 24.1994 6.16666 23.7755 6.16666 23.3335V20.0002C6.16666 19.5581 6.34226 19.1342 6.65482 18.8217C6.96738 18.5091 7.3913 18.3335 7.83333 18.3335Z" stroke="#F2994A" stroke-width="2" stroke-linecap="round" stroke-linejoin="round"/>
<path d="M27.8333 21.6667H9.49995" stroke="#F2994A" stroke-width="2" stroke-linecap="round" stroke-linejoin="round"/>
<path d="M6.16662 21.6667H1.16662" stroke="#F2994A" stroke-width="2" stroke-linecap="round" stroke-linejoin="round"/>
<path fill-rule="evenodd" clip-rule="evenodd" d="M21.1666 10C21.6086 10 22.0326 10.1756 22.3451 10.4882C22.6577 10.8007 22.8333 11.2246 22.8333 11.6667V15C22.8333 15.442 22.6577 15.8659 22.3451 16.1785C22.0326 16.4911 21.6086 16.6667 21.1666 16.6667C20.7246 16.6667 20.3007 16.4911 19.9881 16.1785C19.6755 15.8659 19.4999 15.442 19.4999 15V11.6667C19.4999 11.2246 19.6755 10.8007 19.9881 10.4882C20.3007 10.1756 20.7246 10 21.1666 10V10Z" stroke="#F2994A" stroke-width="2" stroke-linecap="round" stroke-linejoin="round"/>
<path d="M19.4999 13.3335H1.16662" stroke="#F2994A" stroke-width="2" stroke-linecap="round" stroke-linejoin="round"/>
<path d="M27.8332 13.3335H22.8332" stroke="#F2994A" stroke-width="2" stroke-linecap="round" stroke-linejoin="round"/>
</svg>
