<svg width="47" height="76" viewBox="0 0 47 76" fill="none" xmlns="http://www.w3.org/2000/svg">
<path d="M23.5 75.9998C33.3786 75.9998 37.8235 74.4913 40.309 73.5618L46.5075 26.5068H0.493286L6.69255 73.5407C9.17807 74.4798 13.6214 75.9998 23.5 75.9998Z" fill="#E3BBA0"/>
<path d="M37.8395 59.8809C39.9514 59.8809 41.6634 58.4519 41.6634 56.689C41.6634 54.9262 39.9514 53.4971 37.8395 53.4971C35.7276 53.4971 34.0156 54.9262 34.0156 56.689C34.0156 58.4519 35.7276 59.8809 37.8395 59.8809Z" fill="#694A38"/>
<path d="M36.8835 66.7433C38.9954 66.7433 40.7074 65.3142 40.7074 63.5513C40.7074 61.7885 38.9954 60.3594 36.8835 60.3594C34.7716 60.3594 33.0596 61.7885 33.0596 63.5513C33.0596 65.3142 34.7716 66.7433 36.8835 66.7433Z" fill="#7B5339"/>
<path d="M18.3377 75.2022C20.4496 75.2022 22.1616 73.7732 22.1616 72.0103C22.1616 70.2474 20.4496 68.8184 18.3377 68.8184C16.2259 68.8184 14.5139 70.2474 14.5139 72.0103C14.5139 73.7732 16.2259 75.2022 18.3377 75.2022Z" fill="#7B5339"/>
<path d="M8.20449 56.0504C10.3164 56.0504 12.0284 54.6213 12.0284 52.8584C12.0284 51.0956 10.3164 49.6665 8.20449 49.6665C6.09262 49.6665 4.38062 51.0956 4.38062 52.8584C4.38062 54.6213 6.09262 56.0504 8.20449 56.0504Z" fill="#694A38"/>
<path d="M27.6106 75.2022C29.7225 75.2022 31.4345 73.7732 31.4345 72.0103C31.4345 70.2474 29.7225 68.8184 27.6106 68.8184C25.4987 68.8184 23.7867 70.2474 23.7867 72.0103C23.7867 73.7732 25.4987 75.2022 27.6106 75.2022Z" fill="#7B5339"/>
<path d="M18.1466 68.3394C20.2584 68.3394 21.9704 66.9104 21.9704 65.1475C21.9704 63.3846 20.2584 61.9556 18.1466 61.9556C16.0347 61.9556 14.3227 63.3846 14.3227 65.1475C14.3227 66.9104 16.0347 68.3394 18.1466 68.3394Z" fill="#694A38"/>
<path d="M31.1477 56.0504C33.2596 56.0504 34.9716 54.6213 34.9716 52.8584C34.9716 51.0956 33.2596 49.6665 31.1477 49.6665C29.0359 49.6665 27.3239 51.0956 27.3239 52.8584C27.3239 54.6213 29.0359 56.0504 31.1477 56.0504Z" fill="#7B5339"/>
<path d="M29.2357 61.4767C31.3476 61.4767 33.0596 60.0476 33.0596 58.2847C33.0596 56.5219 31.3476 55.0928 29.2357 55.0928C27.1239 55.0928 25.4119 56.5219 25.4119 58.2847C25.4119 60.0476 27.1239 61.4767 29.2357 61.4767Z" fill="#694A38"/>
<path d="M23.5 63.2325C25.6118 63.2325 27.3238 61.8034 27.3238 60.0406C27.3238 58.2777 25.6118 56.8486 23.5 56.8486C21.3881 56.8486 19.6761 58.2777 19.6761 60.0406C19.6761 61.8034 21.3881 63.2325 23.5 63.2325Z" fill="#7B5339"/>
<path d="M28.6622 68.4991C30.7741 68.4991 32.4861 67.07 32.4861 65.3072C32.4861 63.5443 30.7741 62.1152 28.6622 62.1152C26.5503 62.1152 24.8383 63.5443 24.8383 65.3072C24.8383 67.07 26.5503 68.4991 28.6622 68.4991Z" fill="#694A38"/>
<path d="M35.9276 73.606C38.0394 73.606 39.7514 72.177 39.7514 70.4141C39.7514 68.6512 38.0394 67.2222 35.9276 67.2222C33.8157 67.2222 32.1037 68.6512 32.1037 70.4141C32.1037 72.177 33.8157 73.606 35.9276 73.606Z" fill="#7B5339"/>
<path d="M13.9403 60.8385C16.0521 60.8385 17.7641 59.4094 17.7641 57.6465C17.7641 55.8837 16.0521 54.4546 13.9403 54.4546C11.8284 54.4546 10.1164 55.8837 10.1164 57.6465C10.1164 59.4094 11.8284 60.8385 13.9403 60.8385Z" fill="#7B5339"/>
<path d="M12.0283 73.606C14.1402 73.606 15.8522 72.177 15.8522 70.4141C15.8522 68.6512 14.1402 67.2222 12.0283 67.2222C9.91647 67.2222 8.20447 68.6512 8.20447 70.4141C8.20447 72.177 9.91647 73.606 12.0283 73.606Z" fill="#694A38"/>
<path d="M18.7202 57.6466C20.832 57.6466 22.544 56.2175 22.544 54.4546C22.544 52.6918 20.832 51.2627 18.7202 51.2627C16.6083 51.2627 14.8963 52.6918 14.8963 54.4546C14.8963 56.2175 16.6083 57.6466 18.7202 57.6466Z" fill="#694A38"/>
<path d="M10.1164 66.9029C12.2283 66.9029 13.9403 65.4738 13.9403 63.711C13.9403 61.9481 12.2283 60.519 10.1164 60.519C8.00455 60.519 6.29254 61.9481 6.29254 63.711C6.29254 65.4738 8.00455 66.9029 10.1164 66.9029Z" fill="#694A38"/>
<path d="M46.5197 23.3383C46.5197 21.1212 36.2167 19.3433 23.4982 19.3433C10.795 19.3433 0.480286 21.1212 0.480286 23.3383L0.492564 23.4634L0.480286 27.3282L0.492564 27.4533C0.876839 29.5926 11.0374 31.3124 23.4975 31.3124C35.9613 31.3124 46.1041 29.5951 46.5056 27.4584L46.5191 27.3276V27.3269L46.5056 23.4685L46.5197 23.3383Z" fill="#D6DDE5"/>
<path d="M0 23.5493C4.32404 24.7342 13.2275 25.5494 23.5 25.5494C33.7725 25.5494 42.676 24.7342 47 23.5493C44.9489 22.0664 35.2011 20.939 23.5 20.939C11.7989 20.939 2.05113 22.0664 0 23.5493Z" fill="#E9C9B3"/>
<path d="M19.6155 11.3472V24.2699C19.6155 24.2699 20.3443 24.4512 23.4998 24.4512C26.6552 24.4512 27.3841 24.2699 27.3841 24.2699V11.3472C26.217 11.4662 24.8978 11.5335 23.4998 11.5335C22.1018 11.5335 20.7825 11.4662 19.6155 11.3472Z" fill="#F2F4F7"/>
<path d="M19.6155 1.00439V11.3469C20.7825 11.466 22.1018 11.5333 23.4998 11.5333C24.8978 11.5333 26.217 11.466 27.3841 11.3469V1.00439H19.6155Z" fill="white"/>
<path d="M27.3841 4.18434C27.3841 3.1242 27.3841 2.06407 27.3841 1.00439H26.422C24.2072 2.78651 21.7438 3.82634 19.6155 4.18434C19.6155 5.52311 19.6155 6.86235 19.6155 8.20113C22.0628 7.75456 24.9375 6.4407 27.3841 4.18434Z" fill="#A6663C"/>
<path d="M23.5 11.533C23.0404 11.533 22.5899 11.5256 22.1494 11.5118C21.2776 11.8467 20.4225 12.0825 19.6149 12.2181V16.2349C20.7078 16.0356 21.8848 15.6619 23.0717 15.1102C23.7233 14.8075 24.3764 14.4477 25.0211 14.0357C25.8325 13.5172 26.6294 12.9142 27.3843 12.2176V11.3462C26.2172 11.4657 24.898 11.533 23.5 11.533Z" fill="#C87B49"/>
<path d="M22.1494 11.5117C22.5891 11.5255 23.0403 11.5329 23.4999 11.5329C24.898 11.5329 26.2172 11.4655 27.3842 11.3465V8.20117C25.7491 9.74016 23.916 10.8326 22.1494 11.5117Z" fill="#A6663C"/>
<path d="M23.5013 2.00863C25.6465 2.00863 27.3856 1.55898 27.3856 1.00431C27.3856 0.449646 25.6465 0 23.5013 0C21.3561 0 19.617 0.449646 19.617 1.00431C19.617 1.55898 21.3561 2.00863 23.5013 2.00863Z" fill="#C3CDD9"/>
<path d="M24.9123 0.30217C25.9264 0.410121 27.004 0.692454 27.004 1.00431C27.004 1.16947 26.6652 1.35585 26.0977 1.50255C25.4102 1.68016 24.4886 1.77796 23.5013 1.77796C23.0118 1.77796 22.5377 1.75397 22.0903 1.70646C21.0762 1.5985 19.9986 1.31617 19.9986 1.00431C19.9986 0.681382 21.3309 0.230664 23.5005 0.230664C23.99 0.230664 24.4649 0.254653 24.9123 0.30217ZM24.9781 0.0751968C24.523 0.0267573 24.0236 0 23.5013 0C21.3561 0 19.617 0.449795 19.617 1.00431C19.617 1.42366 20.612 1.78304 22.0245 1.93343C22.4796 1.98187 22.979 2.00863 23.5013 2.00863C25.6465 2.00863 27.3856 1.55883 27.3856 1.00431C27.3856 0.584965 26.3914 0.22559 24.9781 0.0751968Z" fill="white"/>
<path d="M27.3843 18.641C24.937 21.7633 22.063 23.5808 19.6149 24.1994C19.6149 22.3468 19.6149 20.4936 19.6149 18.641C22.0576 18.0728 24.9416 16.263 27.3843 13.0825C27.3843 14.9351 27.3843 16.7884 27.3843 18.641Z" fill="#C87B49"/>
</svg>
