<svg width="68" height="76" viewBox="0 0 68 76" fill="none" xmlns="http://www.w3.org/2000/svg">
<path d="M45.8806 22.1739L54.7784 16.7711L13.245 16.6538L22.2132 22.1739H45.8806Z" fill="#999A9C"/>
<path d="M39.1956 22.1739L43.0893 17.3028L24.9341 17.2012L28.8513 22.1739H39.1956Z" fill="#B0B0B0"/>
<path d="M54.7628 16.5757C54.4031 17.0683 53.3867 17.1074 52.8316 17.2012C51.6978 17.428 50.5798 17.6235 49.4226 17.6547C47.1864 17.7486 45.0753 17.3498 42.9173 16.8963C42.8548 16.8807 42.8157 16.8807 42.761 16.8572C41.3458 16.5523 40.1104 16.8729 38.7108 17.0292C37.194 17.1778 35.638 17.1778 34.1212 17.2012C32.4871 17.2169 30.8529 17.1856 29.2344 17.0292C27.8349 16.8807 26.623 16.5523 25.2078 16.8572C25.1687 16.8572 25.1296 16.8729 25.0905 16.8729C22.8934 17.3498 20.8058 17.7486 18.5305 17.6547C17.3733 17.6156 16.2552 17.428 15.1215 17.2012C14.5664 17.1074 13.5656 17.0683 13.1903 16.5757C12.9948 16.2864 13.3701 16.349 13.6516 16.3255C14.0113 16.3099 14.3475 16.2708 14.7071 16.2083C15.3874 16.0753 16.0441 15.8642 16.7009 15.6766C19.5704 14.8009 22.2835 13.3309 24.8168 11.7906C26.0913 11.0322 27.3501 10.1878 28.5855 9.33554C29.2032 8.91332 29.8052 8.47547 30.4229 8.03762C30.7435 7.78741 31.7208 6.80225 32.0805 6.80225H35.8882C36.2479 6.80225 37.2409 7.79523 37.5615 8.03762C38.1635 8.47547 38.7812 8.91332 39.3754 9.33554C40.6108 10.1956 41.8696 11.0322 43.1441 11.7906C45.693 13.3309 48.3905 14.8009 51.2834 15.6766C51.9402 15.8642 52.5814 16.0753 53.2616 16.2083C53.6213 16.263 53.9809 16.3021 54.3406 16.3255C54.583 16.3412 54.9661 16.2864 54.7628 16.5757Z" fill="#384579"/>
<path d="M42.9173 17.0761C42.8548 17.1309 42.8157 17.17 42.7766 17.2091C42.4013 17.4827 41.6976 17.5218 41.2441 17.5766C38.8515 17.9284 36.3964 17.9831 34.0039 17.944C31.5879 17.9831 29.1406 17.9284 26.7637 17.5766C26.3024 17.5218 25.6065 17.4827 25.2312 17.2091C25.1921 17.17 25.1296 17.1309 25.0905 17.0527C24.9106 16.8572 24.7699 16.5523 25.1296 16.5132C25.2703 16.5132 25.4267 16.4741 25.5909 16.3959C25.8723 16.263 26.1695 16.0441 26.4509 15.833C27.7098 14.9182 28.8826 13.37 29.9772 11.7594C30.5558 10.9462 31.0953 10.0705 31.6348 9.17917C31.8928 8.73349 32.1508 8.26437 32.4323 7.80306C32.534 7.64668 32.7529 7.12282 32.9327 6.79443H35.0672C35.2705 7.12282 35.4895 7.64668 35.5833 7.80306C35.8413 8.27219 36.0993 8.73349 36.3808 9.17917C36.8968 10.0705 37.4598 10.9462 38.0149 11.7594C39.1096 13.37 40.2902 14.9182 41.5412 15.833C41.8383 16.0441 42.1198 16.263 42.4169 16.3959C42.5576 16.4741 42.714 16.5132 42.8782 16.5132C43.2222 16.5523 43.0815 16.8885 42.9173 17.0761Z" fill="#515E92"/>
<path d="M54.7393 16.2552C50.783 17.4749 47.0769 17.3107 43.0581 16.4741C42.8391 16.4272 42.6828 16.5445 42.6046 16.693C40.0166 17.9519 37.1001 18.0066 34.2463 17.9675C31.3377 17.9284 27.7489 18.077 25.239 16.5054C25.1061 16.4194 24.9732 16.435 24.8715 16.4898C20.884 17.3107 17.1935 17.4749 13.2606 16.2552C12.7602 16.0988 12.5491 16.8494 13.0417 17.0058C17.0528 18.2412 20.9152 18.0848 24.981 17.256C27.6159 18.8198 31.2595 18.7025 34.2463 18.7416C37.3191 18.7807 40.4231 18.6947 43.1832 17.2873C47.1864 18.0848 51.0019 18.2255 54.9583 17.0058C55.4587 16.8494 55.2397 16.0988 54.7393 16.2552Z" fill="white"/>
<path d="M49.1176 32.0334L60.2516 25.2701L8.27222 25.1216L19.4922 32.0334H49.1176Z" fill="#999A9C"/>
<path d="M40.7593 32.0333L45.6226 25.9347L22.9012 25.8018L27.8036 32.0333H40.7593Z" fill="#B0B0B0"/>
<path d="M59.6886 24.7073C59.2429 24.6838 58.7894 24.6369 58.3438 24.5666C57.4915 24.4024 56.694 24.1365 55.873 23.902C53.3398 23.1357 50.9316 22.002 48.6172 20.7275H19.8362C17.5219 22.002 15.1137 23.1279 12.596 23.902C11.775 24.1365 10.9463 24.4024 10.1018 24.5666C9.65615 24.6369 9.22612 24.6838 8.78045 24.7073C8.42861 24.7308 7.95948 24.6604 8.20968 25.0201C8.68662 25.6377 9.92981 25.6847 10.6335 25.8098C12.0565 26.099 13.4561 26.3336 14.9026 26.3805C17.7486 26.4978 20.3679 25.9974 23.1123 25.4032C23.1592 25.4032 23.2139 25.3797 23.2609 25.3797C25.0357 24.9966 26.5526 25.4032 28.304 25.5908C30.329 25.7785 32.3697 25.8332 34.4183 25.8019C36.3182 25.7785 38.2651 25.7785 40.1573 25.5908C41.9009 25.4032 43.449 24.9966 45.2238 25.3797C45.302 25.4032 45.3489 25.4032 45.4271 25.4266C48.1246 25.9974 50.7674 26.4978 53.5665 26.3805C55.013 26.3336 56.4125 26.0912 57.8356 25.8098C58.5314 25.6925 59.8059 25.6456 60.2594 25.0201C60.4861 24.6604 60.017 24.7308 59.6886 24.7073Z" fill="#384579"/>
<path d="M45.3646 24.9497C45.1613 24.9497 44.9658 24.9028 44.7938 24.8011C44.4185 24.6291 44.0667 24.3633 43.6992 24.0974C42.5889 23.2921 41.5256 22.0802 40.5091 20.7275H27.9912C26.9748 22.0802 25.9192 23.2921 24.8012 24.0974C24.4493 24.3633 24.074 24.6291 23.73 24.8011C23.5267 24.895 23.3312 24.9497 23.1592 24.9497C22.7135 24.9966 22.8856 25.3875 23.1123 25.6299C23.1592 25.7237 23.2374 25.7785 23.2843 25.8254C23.7613 26.1616 24.6291 26.2163 25.2077 26.2867C28.1789 26.7246 31.2517 26.7949 34.2697 26.748C37.2643 26.7949 40.3371 26.7246 43.3317 26.2867C43.9025 26.2163 44.7782 26.1616 45.2551 25.8254C45.302 25.7785 45.3568 25.7316 45.4271 25.6534C45.6148 25.411 45.7868 24.9966 45.3646 24.9497Z" fill="#515E92"/>
<path d="M60.2125 24.6214C55.2632 26.1538 50.6188 25.9427 45.5913 24.895C45.3177 24.8403 45.1222 24.981 45.0206 25.1687C41.7836 26.7481 38.1244 26.8106 34.559 26.7637C30.9154 26.7168 26.4275 26.9044 23.2843 24.9341C23.1123 24.8246 22.9559 24.8403 22.823 24.9107C17.8268 25.9427 13.2137 26.1382 8.28786 24.6214C7.66236 24.4259 7.39652 25.3641 8.0142 25.5596C13.0339 27.1077 17.8737 26.9123 22.9637 25.8724C26.2633 27.8271 30.8138 27.6863 34.559 27.7332C38.398 27.7801 42.2918 27.6785 45.7399 25.9115C50.7517 26.9123 55.529 27.0843 60.4783 25.5596C61.1038 25.3641 60.838 24.4259 60.2125 24.6214Z" fill="white"/>
<path d="M62.8787 75.5141H5.68427L13.3389 34.2934L13.6829 32.4638L14.3397 28.9141H54.2233V28.9297L54.8801 32.4638L55.2241 34.2934L62.8787 75.5141Z" fill="#D6B18A"/>
<path d="M22.4087 75.5063V34.2935H7.66242L0 75.5063H22.4087Z" fill="#FFFAF0"/>
<path d="M22.4087 32.4561H6.29413L7.67023 34.2935H22.4087V32.4561Z" fill="#F7E8C9"/>
<path d="M68 75.5063L60.3376 34.2935H45.5913V75.5063H68Z" fill="#FFFAF0"/>
<path d="M45.5913 32.4561H61.7058L60.3297 34.2935H45.5913V32.4561Z" fill="#F7E8C9"/>
<path d="M37.7179 27.9209H30.7826V37.5927H37.7179V27.9209Z" fill="#FFF2D7"/>
<path d="M37.0532 28.7026H31.5019V36.8029H37.0532V28.7026Z" fill="white"/>
<path d="M36.85 29.0156H31.7208V36.4904H36.85V29.0156Z" fill="#976216"/>
<path d="M34.7389 29.4224H33.6912V31.0174H34.7389V29.4224Z" fill="#F9E482"/>
<path d="M34.7389 31.9556H33.6912V33.5506H34.7389V31.9556Z" fill="#F9E482"/>
<path d="M34.7389 34.3638H33.6912V35.9588H34.7389V34.3638Z" fill="#F9E482"/>
<path d="M35.1767 4.15967H32.8232L31.9475 6.80242H36.0524L35.1767 4.15967Z" fill="#93192E"/>
<path d="M36.1619 2.16581C36.1619 0.96953 35.1923 0 33.9961 0C32.7998 0 31.8303 0.96953 31.8303 2.16581C31.8303 2.56456 31.9475 2.93205 32.1274 3.2448L32.7685 4.88675H35.208L35.8491 3.2448C36.0446 2.92423 36.1619 2.55675 36.1619 2.16581Z" fill="#93192E"/>
<path d="M35.5129 4.78494H32.4949C32.4245 4.78494 32.3619 4.73021 32.3619 4.65202V4.58165C32.3619 4.51128 32.4167 4.44873 32.4949 4.44873H35.5129C35.5833 4.44873 35.6458 4.50346 35.6458 4.58165V4.65202C35.638 4.73021 35.5833 4.78494 35.5129 4.78494Z" fill="#AD2D49"/>
<path d="M35.6146 5.30105H32.3932C32.3229 5.30105 32.2603 5.24632 32.2603 5.16813V5.09776C32.2603 5.02739 32.315 4.96484 32.3932 4.96484H35.6146C35.6849 4.96484 35.7475 5.01958 35.7475 5.09776V5.16813C35.7397 5.2385 35.6849 5.30105 35.6146 5.30105Z" fill="#AD2D49"/>
<path d="M35.6146 4.15945H32.3932C32.3229 4.15945 32.2603 4.10472 32.2603 4.02653V3.95616C32.2603 3.88579 32.315 3.82324 32.3932 3.82324H35.6146C35.6849 3.82324 35.7475 3.87797 35.7475 3.95616V4.02653C35.7397 4.10472 35.6849 4.15945 35.6146 4.15945Z" fill="#AD2D49"/>
<path d="M36.1853 6.96658H31.8146C31.7443 6.96658 31.6817 6.91185 31.6817 6.83366V6.76329C31.6817 6.69292 31.7364 6.63037 31.8146 6.63037H36.1853C36.2557 6.63037 36.3182 6.6851 36.3182 6.76329V6.83366C36.3104 6.90403 36.2557 6.96658 36.1853 6.96658Z" fill="#AD2D49"/>
<path d="M42.0729 57.9376V75.5065H25.9271V57.9376C25.9271 53.4888 29.5472 49.8687 33.9961 49.8687C36.1463 49.8687 38.1714 50.7131 39.7038 52.2377C41.2285 53.778 42.0729 55.7953 42.0729 57.9376Z" fill="#2B2B2B"/>
<path d="M40.3606 51.5807C38.6561 49.8684 36.3965 48.9302 33.9961 48.9302C29.0311 48.9302 24.9888 52.9725 24.9888 57.9374V75.5063H26.8653V57.9374C26.8653 54.0202 30.071 50.8145 33.9883 50.8145C35.9508 50.8145 37.7335 51.612 39.0236 52.9099C40.3137 54.2 41.119 55.9749 41.119 57.9374V75.5063H42.9955V57.9374C43.0112 55.5449 42.0729 53.2852 40.3606 51.5807Z" fill="#FFFAF0"/>
</svg>
